<svg width="1446" height="309" viewBox="0 0 1446 309" fill="none" xmlns="http://www.w3.org/2000/svg">
<g clip-path="url(#clip0_1_2)">
<rect width="1446" height="309" fill="white"/>
<rect x="-54" y="-11" width="1500" height="500" fill="#F2EBE2"/>
<path d="M183 67C183 53.1929 194.193 42 208 42H735V192H208C194.193 192 183 180.807 183 167V67Z" fill="url(#paint0_linear_1_2)"/>
<path d="M223.219 98.2812C223.219 97.7188 223.406 97.25 223.781 96.875C224.156 96.5 224.625 96.3125 225.188 96.3125C225.625 96.3125 226 96.4688 226.312 96.7812C226.688 97.0938 227 97.4688 227.25 97.9062C227.5 98.3438 227.719 98.7812 227.906 99.2188C228.156 99.5938 228.312 99.9688 228.375 100.344L238.688 133.531L240 132.406L247.688 100.344L251.156 96.7812L266.906 129.781L269.531 132.406L270.75 129.781C270.875 128.969 271.062 127.75 271.312 126.125C271.562 124.438 271.844 122.562 272.156 120.5C272.469 118.375 272.812 116.125 273.188 113.75C273.562 111.375 273.906 109.156 274.219 107.094C274.594 104.969 274.906 103.062 275.156 101.375C275.469 99.6875 275.719 98.4688 275.906 97.7188C275.969 97.2188 276.156 96.3438 276.469 95.0938C276.844 93.8438 277.219 92.5625 277.594 91.25C278.031 89.875 278.438 88.5938 278.812 87.4062C279.188 86.1562 279.5 85.3125 279.75 84.875C279.75 84.75 279.875 84.625 280.125 84.5C280.438 84.375 280.719 84.25 280.969 84.125C281.281 83.9375 281.531 83.8125 281.719 83.75C281.969 83.6875 282.156 83.6562 282.281 83.6562C282.719 83.6562 283.031 83.7812 283.219 84.0312C283.406 84.2812 283.531 84.5625 283.594 84.875C283.719 85.1875 283.781 85.5625 283.781 86V86.75C283.781 87.625 283.688 88.4062 283.5 89.0938C283.375 89.7812 282.969 90.5 282.281 91.25L273.281 140.094C273.094 140.969 272.562 141.656 271.688 142.156C270.875 142.594 270.094 142.812 269.344 142.812C269.156 142.812 268.906 142.812 268.594 142.812C268.344 142.75 268.188 142.688 268.125 142.625L251.531 110.562L250.219 109.156C250.031 110.031 249.719 111.375 249.281 113.188C248.906 115 248.469 117.062 247.969 119.375C247.469 121.625 246.938 124.031 246.375 126.594C245.875 129.094 245.375 131.5 244.875 133.812C244.375 136.062 243.906 138.094 243.469 139.906C243.031 141.719 242.75 143.031 242.625 143.844C242.5 144.219 242.375 144.688 242.25 145.25C242.125 145.812 241.938 146.375 241.688 146.938C241.438 147.5 241.094 148 240.656 148.438C240.281 148.875 239.812 149.094 239.25 149.094C238.875 149.094 238.5 149 238.125 148.812C237.812 148.625 237.594 148.281 237.469 147.781L223.219 98.9375C223.219 98.875 223.219 98.7812 223.219 98.6562C223.219 98.4688 223.219 98.3438 223.219 98.2812ZM289.781 120.781C289.781 117.906 290.094 115.25 290.719 112.812C291.406 110.312 292.469 108.188 293.906 106.438C295.344 104.688 297.188 103.312 299.438 102.312C301.75 101.312 304.469 100.812 307.594 100.812C309.406 100.812 310.969 100.969 312.281 101.281C313.656 101.594 314.781 102.156 315.656 102.969C316.594 103.719 317.281 104.75 317.719 106.062C318.156 107.312 318.375 108.875 318.375 110.75C318.375 112.688 317.969 114.344 317.156 115.719C316.406 117.031 315.375 118.125 314.062 119C312.75 119.875 311.281 120.531 309.656 120.969C308.031 121.406 306.375 121.625 304.688 121.625C304.375 121.625 303.938 121.688 303.375 121.812C302.812 121.938 302.156 122.094 301.406 122.281C300.719 122.406 300 122.562 299.25 122.75C298.5 122.938 297.781 123.062 297.094 123.125C296.469 123.125 295.938 123.094 295.5 123.031C295.125 122.906 294.938 122.625 294.938 122.188C294.938 122.125 295.062 121.938 295.312 121.625C295.625 121.25 295.938 120.875 296.25 120.5C296.562 120.125 296.844 119.75 297.094 119.375L297.562 118.906C299.25 118.656 301.062 118.469 303 118.344C305 118.156 306.812 117.812 308.438 117.312C310.125 116.812 311.531 116 312.656 114.875C313.781 113.75 314.344 112.094 314.344 109.906C314.344 108.781 314.156 107.906 313.781 107.281C313.469 106.594 312.969 106.062 312.281 105.688C311.656 105.312 310.906 105.062 310.031 104.938C309.156 104.812 308.219 104.75 307.219 104.75C305.031 104.75 303.125 105.125 301.5 105.875C299.938 106.562 298.688 107.562 297.75 108.875C296.812 110.188 296.094 111.75 295.594 113.562C295.156 115.375 294.938 117.375 294.938 119.562C294.938 120.938 294.969 122.562 295.031 124.438C295.094 126.25 295.25 128.094 295.5 129.969C295.812 131.844 296.219 133.719 296.719 135.594C297.219 137.406 297.875 139.031 298.688 140.469C299.562 141.906 300.562 143.062 301.688 143.938C302.875 144.812 304.281 145.25 305.906 145.25C306.219 145.25 306.688 145.188 307.312 145.062C307.938 144.938 308.562 144.812 309.188 144.688C309.875 144.5 310.5 144.344 311.062 144.219C311.688 144.094 312.156 143.969 312.469 143.844C312.969 143.656 313.719 143.344 314.719 142.906C315.719 142.469 316.844 141.969 318.094 141.406C319.406 140.844 320.75 140.219 322.125 139.531C323.5 138.844 324.812 138.219 326.062 137.656C327.312 137.094 328.438 136.562 329.438 136.062C330.5 135.5 331.25 135.125 331.688 134.938C331.75 135 331.781 135.188 331.781 135.5C331.781 135.812 331.781 136.031 331.781 136.156C331.781 137.281 331.219 138.406 330.094 139.531C329.031 140.594 327.656 141.625 325.969 142.625C324.281 143.562 322.375 144.438 320.25 145.25C318.125 146.062 316.094 146.75 314.156 147.312C312.219 147.875 310.438 148.344 308.812 148.719C307.188 149.031 305.969 149.188 305.156 149.188C303.219 149.188 301.469 148.75 299.906 147.875C298.344 147 297 145.812 295.875 144.312C294.75 142.812 293.781 141.094 292.969 139.156C292.156 137.219 291.5 135.219 291 133.156C290.562 131.094 290.25 129 290.062 126.875C289.875 124.688 289.781 122.656 289.781 120.781ZM333 95.5625C333 94.9375 333.031 94.0625 333.094 92.9375C333.156 91.8125 333.219 90.7188 333.281 89.6562C333.406 88.5312 333.5 87.5625 333.562 86.75C333.688 85.9375 333.75 85.4688 333.75 85.3438L336.375 83L337.5 84.3125C337.5 84.375 337.531 84.9688 337.594 86.0938C337.719 87.1562 337.812 88.6562 337.875 90.5938C337.938 92.4688 338 94.6875 338.062 97.25C338.125 99.8125 338.219 102.531 338.344 105.406C338.469 108.281 338.562 111.25 338.625 114.312C338.75 117.312 338.844 120.281 338.906 123.219C338.969 126.094 339.031 128.844 339.094 131.469C339.156 134.031 339.219 136.312 339.281 138.312V139.062C339.281 139.375 339.25 139.781 339.188 140.281C339.188 140.781 339.156 141.25 339.094 141.688C339.094 142.125 339.094 142.5 339.094 142.812C339.094 143 339.062 143.312 339 143.75C339 144.188 339 144.656 339 145.156C339 145.594 339 146 339 146.375C339 146.75 339 147.031 339 147.219C338.875 147.344 338.688 147.469 338.438 147.594C338.188 147.719 337.938 147.844 337.688 147.969C337.438 148.094 337.156 148.219 336.844 148.344C336.594 148.406 336.406 148.438 336.281 148.438C336.094 148.438 335.844 148.281 335.531 147.969C335.281 147.594 335.094 147.281 334.969 147.031C334.906 146.906 334.812 146.594 334.688 146.094C334.625 145.594 334.531 145.062 334.406 144.5C334.281 143.938 334.156 143.438 334.031 143C333.969 142.5 333.938 142.125 333.938 141.875C333.938 141 333.875 139.688 333.75 137.938C333.688 136.188 333.594 134.281 333.469 132.219C333.344 130.156 333.25 128 333.188 125.75C333.125 123.5 333.031 121.406 332.906 119.469C332.844 117.531 332.781 115.812 332.719 114.312C332.656 112.75 332.625 111.688 332.625 111.125V109.812C332.625 109.125 332.625 108.312 332.625 107.375C332.688 106.375 332.719 105.312 332.719 104.188C332.719 103.062 332.719 101.969 332.719 100.906C332.781 99.8438 332.812 98.8438 332.812 97.9062C332.875 96.9688 332.938 96.1875 333 95.5625ZM345.375 134.375C345.375 132.625 345.562 130.656 345.938 128.469C346.312 126.219 346.875 123.969 347.625 121.719C348.375 119.406 349.281 117.156 350.344 114.969C351.406 112.781 352.625 110.844 354 109.156C355.375 107.469 356.906 106.125 358.594 105.125C360.281 104.062 362.156 103.531 364.219 103.531H366.562C367.688 103.531 368.781 103.656 369.844 103.906C370.906 104.094 371.812 104.469 372.562 105.031C373.375 105.594 373.781 106.406 373.781 107.469H360.656C359.781 107.469 358.938 108 358.125 109.062C357.312 110.125 356.531 111.469 355.781 113.094C355.094 114.656 354.406 116.406 353.719 118.344C353.094 120.281 352.562 122.156 352.125 123.969C351.688 125.781 351.312 127.406 351 128.844C350.75 130.219 350.625 131.188 350.625 131.75C350.625 133.625 350.844 135.406 351.281 137.094C351.781 138.719 352.5 140.156 353.438 141.406C354.375 142.594 355.562 143.531 357 144.219C358.438 144.906 360.125 145.25 362.062 145.25C364.312 145.25 366.438 144.969 368.438 144.406C370.5 143.844 372.406 143.156 374.156 142.344C375.906 141.531 377.531 140.656 379.031 139.719C380.594 138.781 382 137.906 383.25 137.094C384.562 136.281 385.719 135.625 386.719 135.125C387.719 134.562 388.656 134.281 389.531 134.281C389.531 136.219 388.969 137.969 387.844 139.531C386.719 141.031 385.312 142.344 383.625 143.469C381.938 144.531 380 145.438 377.812 146.188C375.625 146.875 373.406 147.438 371.156 147.875C368.906 148.312 366.75 148.625 364.688 148.812C362.688 149 360.969 149.094 359.531 149.094C357.406 149.094 355.438 148.75 353.625 148.062C351.875 147.312 350.375 146.281 349.125 144.969C347.938 143.594 347 142.031 346.312 140.281C345.688 138.469 345.375 136.5 345.375 134.375ZM393.75 135.5C393.938 133.125 394.281 130.688 394.781 128.188C395.281 125.625 395.969 123.188 396.844 120.875C397.719 118.5 398.812 116.281 400.125 114.219C401.438 112.156 403 110.375 404.812 108.875C406.625 107.312 408.719 106.156 411.094 105.406C413.469 104.594 416.156 104.312 419.156 104.562C423.219 108.062 426.125 111.625 427.875 115.25C429.625 118.812 430.5 122.25 430.5 125.562C430.562 128.812 429.906 131.875 428.531 134.75C427.219 137.625 425.469 140.125 423.281 142.25C421.156 144.312 418.781 145.969 416.156 147.219C413.531 148.469 410.969 149.094 408.469 149.094C406.531 149.094 404.656 148.812 402.844 148.25C401.094 147.625 399.531 146.75 398.156 145.625C396.844 144.438 395.781 143 394.969 141.312C394.156 139.625 393.75 137.688 393.75 135.5ZM426 125.844C426 123.969 425.844 122.25 425.531 120.688C425.281 119.125 424.844 117.688 424.219 116.375C423.594 115.062 422.75 113.812 421.688 112.625C420.688 111.375 419.438 110.156 417.938 108.969L417.75 109.719C415.5 109.531 413.219 110.062 410.906 111.312C408.594 112.562 406.5 114.312 404.625 116.562C402.75 118.812 401.25 121.469 400.125 124.531C399 127.594 398.562 130.844 398.812 134.281C398.812 136.344 399.219 138.156 400.031 139.719C400.844 141.281 402.156 142.656 403.969 143.844C404.156 143.844 404.5 143.875 405 143.938C405.5 143.938 406 143.938 406.5 143.938C407.062 143.938 407.594 143.969 408.094 144.031C408.594 144.031 408.906 144.031 409.031 144.031C411.844 144.031 414.312 143.625 416.438 142.812C418.562 141.938 420.312 140.719 421.688 139.156C423.125 137.594 424.188 135.688 424.875 133.438C425.625 131.188 426 128.656 426 125.844ZM480.844 105.312C477.969 105.5 475.594 106.375 473.719 107.938C471.906 109.5 470.438 111.469 469.312 113.844C468.25 116.156 467.438 118.719 466.875 121.531C466.375 124.344 466.031 127.125 465.844 129.875C465.719 132.625 465.688 135.25 465.75 137.75C465.875 140.188 466.031 142.219 466.219 143.844L461.25 143.562C461.25 143.25 461.219 142.469 461.156 141.219C461.094 139.906 461 138.375 460.875 136.625C460.75 134.812 460.625 132.906 460.5 130.906C460.438 128.906 460.344 127.031 460.219 125.281C460.156 123.469 460.062 121.938 459.938 120.688C459.875 119.438 459.812 118.625 459.75 118.25C459.625 117.312 459.406 116.125 459.094 114.688C458.781 113.188 458.281 111.75 457.594 110.375C456.969 109 456.188 107.812 455.25 106.812C454.375 105.812 453.344 105.312 452.156 105.312C450.719 105.312 449.438 105.656 448.312 106.344C447.188 106.969 446.219 107.844 445.406 108.969C444.594 110.031 443.875 111.281 443.25 112.719C442.688 114.094 442.219 115.5 441.844 116.938C441.469 118.375 441.156 119.781 440.906 121.156C440.719 122.469 440.594 123.625 440.531 124.625C440.469 125.125 440.406 125.875 440.344 126.875C440.281 127.875 440.188 129.031 440.062 130.344C440 131.594 439.906 132.906 439.781 134.281C439.719 135.656 439.625 137 439.5 138.312C439.438 139.562 439.375 140.688 439.312 141.688C439.312 142.688 439.312 143.406 439.312 143.844H435.375C435.188 140.469 435 137.531 434.812 135.031C434.625 132.469 434.469 130.094 434.344 127.906C434.281 125.719 434.219 123.5 434.156 121.25C434.094 119 434.062 116.5 434.062 113.75V112.344C434.062 111.656 434.062 110.938 434.062 110.188C434.125 109.438 434.156 108.75 434.156 108.125V106.625C434.344 105.938 434.656 105.25 435.094 104.562C435.531 103.812 436.094 103.25 436.781 102.875C436.906 102.875 437.094 103.062 437.344 103.438C437.656 103.75 437.844 103.969 437.906 104.094C438.031 104.344 438.156 104.781 438.281 105.406C438.406 106.031 438.531 106.688 438.656 107.375C438.781 108 438.906 108.625 439.031 109.25C439.219 109.875 439.312 110.312 439.312 110.562C439.312 110.625 439.375 110.656 439.5 110.656C439.688 110.656 439.812 110.656 439.875 110.656C440.062 110.656 440.375 110.438 440.812 110C441.25 109.5 441.781 108.938 442.406 108.312C443.094 107.625 443.844 106.875 444.656 106.062C445.469 105.25 446.312 104.531 447.188 103.906C448.062 103.219 448.969 102.625 449.906 102.125C450.844 101.625 451.812 101.375 452.812 101.375C454.125 101.375 455.344 101.719 456.469 102.406C457.594 103.094 458.594 103.938 459.469 104.938C460.344 105.938 461.125 107.062 461.812 108.312C462.5 109.562 463.125 110.719 463.688 111.781C465.812 108.219 468.5 105.594 471.75 103.906C475.062 102.219 478.781 101.375 482.906 101.375C485.594 102.375 487.719 103.875 489.281 105.875C490.844 107.875 492.031 110.156 492.844 112.719C493.719 115.281 494.281 118 494.531 120.875C494.844 123.75 495.062 126.562 495.188 129.312C495.375 132.062 495.594 134.594 495.844 136.906C496.094 139.156 496.594 140.969 497.344 142.344C498.094 143.719 499.188 144.531 500.625 144.781C502.125 145.031 504.188 144.469 506.812 143.094C506.562 143.656 506.438 144.188 506.438 144.688C506.5 145.188 506.562 145.625 506.625 146C506.688 146.375 506.656 146.656 506.531 146.844C506.469 147.031 506.188 147.125 505.688 147.125C502.875 148.625 500.562 149.125 498.75 148.625C496.938 148.125 495.469 147 494.344 145.25C493.281 143.5 492.438 141.25 491.812 138.5C491.188 135.688 490.688 132.75 490.312 129.688C489.938 126.562 489.562 123.469 489.188 120.406C488.812 117.344 488.281 114.656 487.594 112.344C486.969 109.969 486.125 108.125 485.062 106.812C484.062 105.438 482.656 104.938 480.844 105.312ZM507.188 120.781C507.188 117.906 507.5 115.25 508.125 112.812C508.812 110.312 509.875 108.188 511.312 106.438C512.75 104.688 514.594 103.312 516.844 102.312C519.156 101.312 521.875 100.812 525 100.812C526.812 100.812 528.375 100.969 529.688 101.281C531.062 101.594 532.188 102.156 533.062 102.969C534 103.719 534.688 104.75 535.125 106.062C535.562 107.312 535.781 108.875 535.781 110.75C535.781 112.688 535.375 114.344 534.562 115.719C533.812 117.031 532.781 118.125 531.469 119C530.156 119.875 528.688 120.531 527.062 120.969C525.438 121.406 523.781 121.625 522.094 121.625C521.781 121.625 521.344 121.688 520.781 121.812C520.219 121.938 519.562 122.094 518.812 122.281C518.125 122.406 517.406 122.562 516.656 122.75C515.906 122.938 515.188 123.062 514.5 123.125C513.875 123.125 513.344 123.094 512.906 123.031C512.531 122.906 512.344 122.625 512.344 122.188C512.344 122.125 512.469 121.938 512.719 121.625C513.031 121.25 513.344 120.875 513.656 120.5C513.969 120.125 514.25 119.75 514.5 119.375L514.969 118.906C516.656 118.656 518.469 118.469 520.406 118.344C522.406 118.156 524.219 117.812 525.844 117.312C527.531 116.812 528.938 116 530.062 114.875C531.188 113.75 531.75 112.094 531.75 109.906C531.75 108.781 531.562 107.906 531.188 107.281C530.875 106.594 530.375 106.062 529.688 105.688C529.062 105.312 528.312 105.062 527.438 104.938C526.562 104.812 525.625 104.75 524.625 104.75C522.438 104.75 520.531 105.125 518.906 105.875C517.344 106.562 516.094 107.562 515.156 108.875C514.219 110.188 513.5 111.75 513 113.562C512.562 115.375 512.344 117.375 512.344 119.562C512.344 120.938 512.375 122.562 512.438 124.438C512.5 126.25 512.656 128.094 512.906 129.969C513.219 131.844 513.625 133.719 514.125 135.594C514.625 137.406 515.281 139.031 516.094 140.469C516.969 141.906 517.969 143.062 519.094 143.938C520.281 144.812 521.688 145.25 523.312 145.25C523.625 145.25 524.094 145.188 524.719 145.062C525.344 144.938 525.969 144.812 526.594 144.688C527.281 144.5 527.906 144.344 528.469 144.219C529.094 144.094 529.562 143.969 529.875 143.844C530.375 143.656 531.125 143.344 532.125 142.906C533.125 142.469 534.25 141.969 535.5 141.406C536.812 140.844 538.156 140.219 539.531 139.531C540.906 138.844 542.219 138.219 543.469 137.656C544.719 137.094 545.844 136.562 546.844 136.062C547.906 135.5 548.656 135.125 549.094 134.938C549.156 135 549.188 135.188 549.188 135.5C549.188 135.812 549.188 136.031 549.188 136.156C549.188 137.281 548.625 138.406 547.5 139.531C546.438 140.594 545.062 141.625 543.375 142.625C541.688 143.562 539.781 144.438 537.656 145.25C535.531 146.062 533.5 146.75 531.562 147.312C529.625 147.875 527.844 148.344 526.219 148.719C524.594 149.031 523.375 149.188 522.562 149.188C520.625 149.188 518.875 148.75 517.312 147.875C515.75 147 514.406 145.812 513.281 144.312C512.156 142.812 511.188 141.094 510.375 139.156C509.562 137.219 508.906 135.219 508.406 133.156C507.969 131.094 507.656 129 507.469 126.875C507.281 124.688 507.188 122.656 507.188 120.781ZM546.844 163.25C548.531 162.125 549.875 161 550.875 159.875C551.938 158.75 552.75 157.562 553.312 156.312C553.875 155.062 554.25 153.688 554.438 152.188C554.625 150.75 554.719 149.094 554.719 147.219C554.719 146.219 554.625 145.25 554.438 144.312C554.25 143.375 554.062 142.469 553.875 141.594C553.688 140.656 553.5 139.719 553.312 138.781C553.188 137.844 553.125 136.906 553.125 135.969C554.688 135.969 555.875 136.406 556.688 137.281C557.562 138.156 558.219 139.25 558.656 140.562C559.094 141.875 559.375 143.281 559.5 144.781C559.688 146.219 559.781 147.469 559.781 148.531C559.781 149.656 559.594 150.875 559.219 152.188C558.906 153.5 558.469 154.781 557.906 156.031C557.344 157.281 556.656 158.438 555.844 159.5C555.094 160.562 554.219 161.406 553.219 162.031C552.906 162.219 552.469 162.469 551.906 162.781C551.344 163.094 550.781 163.375 550.219 163.625C549.719 163.938 549.25 164.188 548.812 164.375C548.438 164.562 548.219 164.656 548.156 164.656L546.844 163.25ZM612.281 111.312C611.906 109.625 611.75 108.406 611.812 107.656C611.938 106.906 612.281 106.438 612.844 106.25C613.406 106 614.125 105.938 615 106.062C615.938 106.125 616.938 106.125 618 106.062C619.125 106 620.312 105.75 621.562 105.312C622.875 104.875 624.156 104.031 625.406 102.781C625.531 102.094 625.656 100.938 625.781 99.3125C625.969 97.625 626.156 95.7188 626.344 93.5938C626.594 91.4688 626.812 89.25 627 86.9375C627.25 84.5625 627.469 82.3125 627.656 80.1875C627.844 78.0625 628 76.1875 628.125 74.5625C628.312 72.9375 628.469 71.7812 628.594 71.0938H629.344C629.531 71.0938 629.75 71.0625 630 71C630.25 70.9375 630.5 70.875 630.75 70.8125C631 70.75 631.219 70.75 631.406 70.8125C631.594 70.8125 631.781 70.9375 631.969 71.1875C632.094 73.3125 632.062 75.7188 631.875 78.4062C631.688 81.0938 631.438 83.9062 631.125 86.8438C630.875 89.7812 630.656 92.7188 630.469 95.6562C630.281 98.5938 630.312 101.344 630.562 103.906L648.75 102.688L648.094 106.344L632.062 108.5C630.625 111.125 629.656 113.938 629.156 116.938C628.656 119.875 628.5 122.75 628.688 125.562C628.875 128.312 629.312 130.906 630 133.344C630.75 135.781 631.625 137.844 632.625 139.531C633.688 141.219 634.812 142.438 636 143.188C637.188 143.875 638.344 143.906 639.469 143.281C640.656 143.344 641.688 143.188 642.562 142.812C643.5 142.375 644.281 141.812 644.906 141.125C645.531 140.438 646.062 139.688 646.5 138.875C646.938 138 647.312 137.156 647.625 136.344C648 135.531 648.375 134.812 648.75 134.188C649.188 133.562 649.656 133.094 650.156 132.781C650.156 132.906 650.156 133.281 650.156 133.906C650.219 134.469 650.25 134.844 650.25 135.031C650.25 136.844 649.938 138.562 649.312 140.188C648.688 141.75 647.844 143.094 646.781 144.219C645.781 145.344 644.531 146.219 643.031 146.844C641.594 147.469 640.031 147.781 638.344 147.781C635.594 147.656 633.375 146.938 631.688 145.625C630 144.25 628.656 142.469 627.656 140.281C626.656 138.094 625.969 135.688 625.594 133.062C625.281 130.375 625.125 127.656 625.125 124.906C625.125 122.156 625.188 119.5 625.312 116.938C625.5 114.312 625.688 111.969 625.875 109.906L612.281 111.312ZM649.875 135.5C650.062 133.125 650.406 130.688 650.906 128.188C651.406 125.625 652.094 123.188 652.969 120.875C653.844 118.5 654.938 116.281 656.25 114.219C657.562 112.156 659.125 110.375 660.938 108.875C662.75 107.312 664.844 106.156 667.219 105.406C669.594 104.594 672.281 104.312 675.281 104.562C679.344 108.062 682.25 111.625 684 115.25C685.75 118.812 686.625 122.25 686.625 125.562C686.688 128.812 686.031 131.875 684.656 134.75C683.344 137.625 681.594 140.125 679.406 142.25C677.281 144.312 674.906 145.969 672.281 147.219C669.656 148.469 667.094 149.094 664.594 149.094C662.656 149.094 660.781 148.812 658.969 148.25C657.219 147.625 655.656 146.75 654.281 145.625C652.969 144.438 651.906 143 651.094 141.312C650.281 139.625 649.875 137.688 649.875 135.5ZM682.125 125.844C682.125 123.969 681.969 122.25 681.656 120.688C681.406 119.125 680.969 117.688 680.344 116.375C679.719 115.062 678.875 113.812 677.812 112.625C676.812 111.375 675.562 110.156 674.062 108.969L673.875 109.719C671.625 109.531 669.344 110.062 667.031 111.312C664.719 112.562 662.625 114.312 660.75 116.562C658.875 118.812 657.375 121.469 656.25 124.531C655.125 127.594 654.688 130.844 654.938 134.281C654.938 136.344 655.344 138.156 656.156 139.719C656.969 141.281 658.281 142.656 660.094 143.844C660.281 143.844 660.625 143.875 661.125 143.938C661.625 143.938 662.125 143.938 662.625 143.938C663.188 143.938 663.719 143.969 664.219 144.031C664.719 144.031 665.031 144.031 665.156 144.031C667.969 144.031 670.438 143.625 672.562 142.812C674.688 141.938 676.438 140.719 677.812 139.156C679.25 137.594 680.312 135.688 681 133.438C681.75 131.188 682.125 128.656 682.125 125.844ZM785.531 105.312C782.656 105.5 780.281 106.375 778.406 107.938C776.594 109.5 775.125 111.469 774 113.844C772.938 116.156 772.125 118.719 771.562 121.531C771.062 124.344 770.719 127.125 770.531 129.875C770.406 132.625 770.375 135.25 770.438 137.75C770.562 140.188 770.719 142.219 770.906 143.844L765.938 143.562C765.938 143.25 765.906 142.469 765.844 141.219C765.781 139.906 765.688 138.375 765.562 136.625C765.438 134.812 765.312 132.906 765.188 130.906C765.125 128.906 765.031 127.031 764.906 125.281C764.844 123.469 764.75 121.938 764.625 120.688C764.562 119.438 764.5 118.625 764.438 118.25C764.312 117.312 764.094 116.125 763.781 114.688C763.469 113.188 762.969 111.75 762.281 110.375C761.656 109 760.875 107.812 759.938 106.812C759.062 105.812 758.031 105.312 756.844 105.312C755.406 105.312 754.125 105.656 753 106.344C751.875 106.969 750.906 107.844 750.094 108.969C749.281 110.031 748.562 111.281 747.938 112.719C747.375 114.094 746.906 115.5 746.531 116.938C746.156 118.375 745.844 119.781 745.594 121.156C745.406 122.469 745.281 123.625 745.219 124.625C745.156 125.125 745.094 125.875 745.031 126.875C744.969 127.875 744.875 129.031 744.75 130.344C744.688 131.594 744.594 132.906 744.469 134.281C744.406 135.656 744.312 137 744.188 138.312C744.125 139.562 744.062 140.688 744 141.688C744 142.688 744 143.406 744 143.844H740.062C739.875 140.469 739.688 137.531 739.5 135.031C739.312 132.469 739.156 130.094 739.031 127.906C738.969 125.719 738.906 123.5 738.844 121.25C738.781 119 738.75 116.5 738.75 113.75V112.344C738.75 111.656 738.75 110.938 738.75 110.188C738.812 109.438 738.844 108.75 738.844 108.125V106.625C739.031 105.938 739.344 105.25 739.781 104.562C740.219 103.812 740.781 103.25 741.469 102.875C741.594 102.875 741.781 103.062 742.031 103.438C742.344 103.75 742.531 103.969 742.594 104.094C742.719 104.344 742.844 104.781 742.969 105.406C743.094 106.031 743.219 106.688 743.344 107.375C743.469 108 743.594 108.625 743.719 109.25C743.906 109.875 744 110.312 744 110.562C744 110.625 744.062 110.656 744.188 110.656C744.375 110.656 744.5 110.656 744.562 110.656C744.75 110.656 745.062 110.438 745.5 110C745.938 109.5 746.469 108.938 747.094 108.312C747.781 107.625 748.531 106.875 749.344 106.062C750.156 105.25 751 104.531 751.875 103.906C752.75 103.219 753.656 102.625 754.594 102.125C755.531 101.625 756.5 101.375 757.5 101.375C758.812 101.375 760.031 101.719 761.156 102.406C762.281 103.094 763.281 103.938 764.156 104.938C765.031 105.938 765.812 107.062 766.5 108.312C767.188 109.562 767.812 110.719 768.375 111.781C770.5 108.219 773.188 105.594 776.438 103.906C779.75 102.219 783.469 101.375 787.594 101.375C790.281 102.375 792.406 103.875 793.969 105.875C795.531 107.875 796.719 110.156 797.531 112.719C798.406 115.281 798.969 118 799.219 120.875C799.531 123.75 799.75 126.562 799.875 129.312C800.062 132.062 800.281 134.594 800.531 136.906C800.781 139.156 801.281 140.969 802.031 142.344C802.781 143.719 803.875 144.531 805.312 144.781C806.812 145.031 808.875 144.469 811.5 143.094C811.25 143.656 811.125 144.188 811.125 144.688C811.188 145.188 811.25 145.625 811.312 146C811.375 146.375 811.344 146.656 811.219 146.844C811.156 147.031 810.875 147.125 810.375 147.125C807.562 148.625 805.25 149.125 803.438 148.625C801.625 148.125 800.156 147 799.031 145.25C797.969 143.5 797.125 141.25 796.5 138.5C795.875 135.688 795.375 132.75 795 129.688C794.625 126.562 794.25 123.469 793.875 120.406C793.5 117.344 792.969 114.656 792.281 112.344C791.656 109.969 790.812 108.125 789.75 106.812C788.75 105.438 787.344 104.938 785.531 105.312ZM801 176.562C801 176.438 801.125 175.969 801.375 175.156C801.562 174.344 801.812 173.469 802.125 172.531C802.438 171.656 802.781 170.844 803.156 170.094C803.531 169.344 803.938 168.969 804.375 168.969C804.375 171.844 804.906 174.562 805.969 177.125C807.031 179.75 808.469 182.031 810.281 183.969C812.156 185.906 814.344 187.406 816.844 188.469C819.406 189.594 822.125 190.156 825 190.156C827.625 190.156 829.844 189.625 831.656 188.562C833.469 187.562 834.969 186.188 836.156 184.438C837.344 182.688 838.25 180.719 838.875 178.531C839.562 176.344 840.062 174.062 840.375 171.688C840.688 169.375 840.875 167.094 840.938 164.844C841 162.656 841.031 160.625 841.031 158.75C841.031 158.125 841 157.188 840.938 155.938C840.938 154.75 840.938 153.562 840.938 152.375C840.938 151.188 840.938 150.125 840.938 149.188C840.938 148.312 840.938 147.844 840.938 147.781C840.938 147.531 840.875 146.938 840.75 146C840.688 145.062 840.562 144.062 840.375 143C840.25 141.875 840.125 140.812 840 139.812C839.875 138.812 839.781 138.062 839.719 137.562C839.656 137.312 839.562 136.875 839.438 136.25C839.375 135.625 839.25 134.969 839.062 134.281C838.875 133.594 838.625 132.938 838.312 132.312C838 131.688 837.594 131.25 837.094 131C836.344 132.5 835.281 134.094 833.906 135.781C832.594 137.406 831.062 138.938 829.312 140.375C827.625 141.75 825.844 142.906 823.969 143.844C822.156 144.781 820.312 145.25 818.438 145.25C817 145.25 815.781 144.875 814.781 144.125C813.844 143.312 813.062 142.312 812.438 141.125C811.875 139.938 811.406 138.562 811.031 137C810.719 135.438 810.5 133.906 810.375 132.406C810.25 130.844 810.156 129.406 810.094 128.094C810.094 126.719 810.094 125.594 810.094 124.719C810.094 123.219 810.219 121.562 810.469 119.75C810.719 117.938 811 116.062 811.312 114.125C811.688 112.188 812.031 110.281 812.344 108.406C812.719 106.469 813.062 104.688 813.375 103.062C813.875 102.062 814.531 101.562 815.344 101.562C815.406 101.562 815.5 101.594 815.625 101.656C815.812 101.656 815.938 101.656 816 101.656C816 102.219 815.969 103.25 815.906 104.75C815.906 106.188 815.875 107.844 815.812 109.719C815.75 111.594 815.656 113.625 815.531 115.812C815.469 117.938 815.406 119.938 815.344 121.812C815.344 123.688 815.312 125.344 815.25 126.781C815.25 128.219 815.281 129.219 815.344 129.781C815.344 130.406 815.375 131.312 815.438 132.5C815.5 133.625 815.656 134.75 815.906 135.875C816.156 137 816.531 138 817.031 138.875C817.594 139.75 818.438 140.188 819.562 140.188C820.5 140.188 821.562 140.094 822.75 139.906C823.938 139.719 824.844 139.344 825.469 138.781C826.344 138.031 827.406 137.062 828.656 135.875C829.906 134.625 831.094 133.375 832.219 132.125C833.344 130.875 834.312 129.781 835.125 128.844C836 127.906 836.438 127.344 836.438 127.156L838.406 99.2188C838.406 98.9688 838.5 98.75 838.688 98.5625C838.875 98.375 839.094 98.25 839.344 98.1875C839.656 98.0625 839.938 97.9688 840.188 97.9062C840.5 97.8438 840.781 97.8125 841.031 97.8125C841.844 97.8125 842.438 98.0938 842.812 98.6562C843.25 99.1562 843.719 99.7812 844.219 100.531C843.719 104.969 843.562 109.719 843.75 114.781C843.938 119.781 844.219 124.844 844.594 129.969C844.969 135.031 845.344 140.094 845.719 145.156C846.094 150.156 846.281 154.875 846.281 159.312C846.281 159.812 846.281 160.719 846.281 162.031C846.281 163.406 846.25 164.844 846.188 166.344C846.188 167.844 846.156 169.25 846.094 170.562C846.031 171.938 846 172.875 846 173.375C845.75 176 845.031 178.594 843.844 181.156C842.656 183.781 841.125 186.156 839.25 188.281C837.375 190.406 835.188 192.125 832.688 193.438C830.25 194.75 827.625 195.406 824.812 195.406C823.562 195.406 822.062 195.156 820.312 194.656C818.625 194.219 816.906 193.562 815.156 192.688C813.406 191.875 811.688 190.875 810 189.688C808.312 188.562 806.812 187.312 805.5 185.938C804.188 184.562 803.125 183.062 802.312 181.438C801.438 179.875 801 178.25 801 176.562ZM898.969 134.375C898.969 132.625 899.156 130.656 899.531 128.469C899.906 126.219 900.469 123.969 901.219 121.719C901.969 119.406 902.875 117.156 903.938 114.969C905 112.781 906.219 110.844 907.594 109.156C908.969 107.469 910.5 106.125 912.188 105.125C913.875 104.062 915.75 103.531 917.812 103.531H920.156C921.281 103.531 922.375 103.656 923.438 103.906C924.5 104.094 925.406 104.469 926.156 105.031C926.969 105.594 927.375 106.406 927.375 107.469H914.25C913.375 107.469 912.531 108 911.719 109.062C910.906 110.125 910.125 111.469 909.375 113.094C908.688 114.656 908 116.406 907.312 118.344C906.688 120.281 906.156 122.156 905.719 123.969C905.281 125.781 904.906 127.406 904.594 128.844C904.344 130.219 904.219 131.188 904.219 131.75C904.219 133.625 904.438 135.406 904.875 137.094C905.375 138.719 906.094 140.156 907.031 141.406C907.969 142.594 909.156 143.531 910.594 144.219C912.031 144.906 913.719 145.25 915.656 145.25C917.906 145.25 920.031 144.969 922.031 144.406C924.094 143.844 926 143.156 927.75 142.344C929.5 141.531 931.125 140.656 932.625 139.719C934.188 138.781 935.594 137.906 936.844 137.094C938.156 136.281 939.312 135.625 940.312 135.125C941.312 134.562 942.25 134.281 943.125 134.281C943.125 136.219 942.562 137.969 941.438 139.531C940.312 141.031 938.906 142.344 937.219 143.469C935.531 144.531 933.594 145.438 931.406 146.188C929.219 146.875 927 147.438 924.75 147.875C922.5 148.312 920.344 148.625 918.281 148.812C916.281 149 914.562 149.094 913.125 149.094C911 149.094 909.031 148.75 907.219 148.062C905.469 147.312 903.969 146.281 902.719 144.969C901.531 143.594 900.594 142.031 899.906 140.281C899.281 138.469 898.969 136.5 898.969 134.375ZM947.344 135.5C947.531 133.125 947.875 130.688 948.375 128.188C948.875 125.625 949.562 123.188 950.438 120.875C951.312 118.5 952.406 116.281 953.719 114.219C955.031 112.156 956.594 110.375 958.406 108.875C960.219 107.312 962.312 106.156 964.688 105.406C967.062 104.594 969.75 104.312 972.75 104.562C976.812 108.062 979.719 111.625 981.469 115.25C983.219 118.812 984.094 122.25 984.094 125.562C984.156 128.812 983.5 131.875 982.125 134.75C980.812 137.625 979.062 140.125 976.875 142.25C974.75 144.312 972.375 145.969 969.75 147.219C967.125 148.469 964.562 149.094 962.062 149.094C960.125 149.094 958.25 148.812 956.438 148.25C954.688 147.625 953.125 146.75 951.75 145.625C950.438 144.438 949.375 143 948.562 141.312C947.75 139.625 947.344 137.688 947.344 135.5ZM979.594 125.844C979.594 123.969 979.438 122.25 979.125 120.688C978.875 119.125 978.438 117.688 977.812 116.375C977.188 115.062 976.344 113.812 975.281 112.625C974.281 111.375 973.031 110.156 971.531 108.969L971.344 109.719C969.094 109.531 966.812 110.062 964.5 111.312C962.188 112.562 960.094 114.312 958.219 116.562C956.344 118.812 954.844 121.469 953.719 124.531C952.594 127.594 952.156 130.844 952.406 134.281C952.406 136.344 952.812 138.156 953.625 139.719C954.438 141.281 955.75 142.656 957.562 143.844C957.75 143.844 958.094 143.875 958.594 143.938C959.094 143.938 959.594 143.938 960.094 143.938C960.656 143.938 961.188 143.969 961.688 144.031C962.188 144.031 962.5 144.031 962.625 144.031C965.438 144.031 967.906 143.625 970.031 142.812C972.156 141.938 973.906 140.719 975.281 139.156C976.719 137.594 977.781 135.688 978.469 133.438C979.219 131.188 979.594 128.656 979.594 125.844ZM989.25 119.844V106.156C989.25 105.781 989.281 105.469 989.344 105.219C989.406 104.906 989.531 104.656 989.719 104.469C989.906 104.219 990.219 104.062 990.656 104C991.531 104.562 992.125 105.375 992.438 106.438C992.75 107.438 993 108.469 993.188 109.531C993.375 110.531 993.625 111.5 993.938 112.438C994.312 113.312 994.906 113.906 995.719 114.219C996.781 112.406 997.844 110.719 998.906 109.156C999.969 107.594 1001.16 106.219 1002.47 105.031C1003.84 103.844 1005.34 102.938 1006.97 102.312C1008.59 101.688 1010.53 101.375 1012.78 101.375C1014.09 101.375 1015.44 101.5 1016.81 101.75C1018.25 102 1019.53 102.438 1020.66 103.062C1021.84 103.688 1022.81 104.562 1023.56 105.688C1024.31 106.75 1024.69 108.094 1024.69 109.719C1023.44 109.719 1022.31 109.5 1021.31 109.062C1020.38 108.562 1019.44 108.031 1018.5 107.469C1017.56 106.906 1016.56 106.406 1015.5 105.969C1014.44 105.469 1013.19 105.219 1011.75 105.219C1009.88 105.219 1008.19 105.719 1006.69 106.719C1005.19 107.656 1003.84 108.938 1002.66 110.562C1001.47 112.188 1000.44 114.062 999.562 116.188C998.688 118.312 997.906 120.562 997.219 122.938C996.594 125.312 996.094 127.719 995.719 130.156C995.344 132.531 995.031 134.844 994.781 137.094C994.531 139.281 994.344 141.312 994.219 143.188C994.156 145.062 994.125 146.594 994.125 147.781H990.375C990.125 146.094 989.938 144.156 989.812 141.969C989.688 139.719 989.594 137.375 989.531 134.938C989.469 132.438 989.406 129.906 989.344 127.344C989.281 124.781 989.25 122.281 989.25 119.844ZM1051.78 103.906C1050.47 103.906 1048.94 104.344 1047.19 105.219C1045.44 106.031 1043.75 107.094 1042.12 108.406C1040.5 109.656 1039.12 111.062 1038 112.625C1036.88 114.125 1036.31 115.562 1036.31 116.938V145.25C1036.31 145.5 1036.16 145.719 1035.84 145.906C1035.59 146.031 1035.28 146.156 1034.91 146.281C1034.59 146.344 1034.25 146.406 1033.88 146.469C1033.5 146.469 1033.22 146.469 1033.03 146.469C1032.22 146.469 1031.62 146.344 1031.25 146.094C1030.88 145.781 1030.62 145.375 1030.5 144.875C1030.44 144.375 1030.41 143.812 1030.41 143.188C1030.47 142.562 1030.5 141.938 1030.5 141.312C1030.44 140.812 1030.38 139.719 1030.31 138.031L1030.12 132.312C1030.06 130.125 1029.97 127.812 1029.84 125.375C1029.78 122.875 1029.72 120.531 1029.66 118.344C1029.59 116.094 1029.5 114.156 1029.38 112.531C1029.31 110.844 1029.28 109.719 1029.28 109.156V105.594C1029.28 105.219 1029.34 104.875 1029.47 104.562C1029.59 104.25 1029.84 103.969 1030.22 103.719C1030.59 103.406 1031.12 103.125 1031.81 102.875C1032 102.875 1032.22 103.062 1032.47 103.438C1032.78 103.75 1032.97 103.969 1033.03 104.094C1033.09 104.344 1033.19 104.781 1033.31 105.406C1033.5 106.031 1033.66 106.688 1033.78 107.375C1033.91 108 1034.03 108.625 1034.16 109.25C1034.28 109.875 1034.34 110.312 1034.34 110.562C1034.41 110.625 1034.5 110.656 1034.62 110.656C1034.75 110.656 1034.88 110.656 1035 110.656C1035.88 110.656 1036.91 110.125 1038.09 109.062C1039.34 107.938 1040.75 106.719 1042.31 105.406C1043.94 104.094 1045.62 102.906 1047.38 101.844C1049.12 100.719 1050.97 100.156 1052.91 100.156C1055.34 100.156 1057.25 100.812 1058.62 102.125C1060.06 103.375 1061.09 105.094 1061.72 107.281C1062.41 109.406 1062.84 111.812 1063.03 114.5C1063.28 117.188 1063.47 119.938 1063.59 122.75C1063.78 125.5 1064.03 128.25 1064.34 131C1064.66 133.688 1065.25 136.094 1066.12 138.219C1067 140.344 1068.25 142.062 1069.88 143.375C1071.56 144.625 1073.84 145.25 1076.72 145.25C1077.66 145.25 1078.59 145.188 1079.53 145.062C1080.53 144.938 1081.5 144.781 1082.44 144.594C1083.38 144.406 1084.31 144.25 1085.25 144.125C1086.25 143.938 1087.25 143.844 1088.25 143.844C1088.38 143.844 1088.62 143.844 1089 143.844H1089.47C1087.22 145.531 1084.94 146.844 1082.62 147.781C1080.31 148.656 1077.69 149.094 1074.75 149.094C1071.62 149.094 1069.09 148.469 1067.16 147.219C1065.28 145.906 1063.78 144.188 1062.66 142.062C1061.53 139.875 1060.75 137.438 1060.31 134.75C1059.88 132.062 1059.53 129.344 1059.28 126.594C1059.03 123.781 1058.84 121.031 1058.72 118.344C1058.59 115.594 1058.31 113.156 1057.88 111.031C1057.44 108.906 1056.75 107.188 1055.81 105.875C1054.88 104.562 1053.53 103.906 1051.78 103.906ZM1087.41 120.781C1087.41 117.906 1087.72 115.25 1088.34 112.812C1089.03 110.312 1090.09 108.188 1091.53 106.438C1092.97 104.688 1094.81 103.312 1097.06 102.312C1099.38 101.312 1102.09 100.812 1105.22 100.812C1107.03 100.812 1108.59 100.969 1109.91 101.281C1111.28 101.594 1112.41 102.156 1113.28 102.969C1114.22 103.719 1114.91 104.75 1115.34 106.062C1115.78 107.312 1116 108.875 1116 110.75C1116 112.688 1115.59 114.344 1114.78 115.719C1114.03 117.031 1113 118.125 1111.69 119C1110.38 119.875 1108.91 120.531 1107.28 120.969C1105.66 121.406 1104 121.625 1102.31 121.625C1102 121.625 1101.56 121.688 1101 121.812C1100.44 121.938 1099.78 122.094 1099.03 122.281C1098.34 122.406 1097.62 122.562 1096.88 122.75C1096.12 122.938 1095.41 123.062 1094.72 123.125C1094.09 123.125 1093.56 123.094 1093.12 123.031C1092.75 122.906 1092.56 122.625 1092.56 122.188C1092.56 122.125 1092.69 121.938 1092.94 121.625C1093.25 121.25 1093.56 120.875 1093.88 120.5C1094.19 120.125 1094.47 119.75 1094.72 119.375L1095.19 118.906C1096.88 118.656 1098.69 118.469 1100.62 118.344C1102.62 118.156 1104.44 117.812 1106.06 117.312C1107.75 116.812 1109.16 116 1110.28 114.875C1111.41 113.75 1111.97 112.094 1111.97 109.906C1111.97 108.781 1111.78 107.906 1111.41 107.281C1111.09 106.594 1110.59 106.062 1109.91 105.688C1109.28 105.312 1108.53 105.062 1107.66 104.938C1106.78 104.812 1105.84 104.75 1104.84 104.75C1102.66 104.75 1100.75 105.125 1099.12 105.875C1097.56 106.562 1096.31 107.562 1095.38 108.875C1094.44 110.188 1093.72 111.75 1093.22 113.562C1092.78 115.375 1092.56 117.375 1092.56 119.562C1092.56 120.938 1092.59 122.562 1092.66 124.438C1092.72 126.25 1092.88 128.094 1093.12 129.969C1093.44 131.844 1093.84 133.719 1094.34 135.594C1094.84 137.406 1095.5 139.031 1096.31 140.469C1097.19 141.906 1098.19 143.062 1099.31 143.938C1100.5 144.812 1101.91 145.25 1103.53 145.25C1103.84 145.25 1104.31 145.188 1104.94 145.062C1105.56 144.938 1106.19 144.812 1106.81 144.688C1107.5 144.5 1108.12 144.344 1108.69 144.219C1109.31 144.094 1109.78 143.969 1110.09 143.844C1110.59 143.656 1111.34 143.344 1112.34 142.906C1113.34 142.469 1114.47 141.969 1115.72 141.406C1117.03 140.844 1118.38 140.219 1119.75 139.531C1121.12 138.844 1122.44 138.219 1123.69 137.656C1124.94 137.094 1126.06 136.562 1127.06 136.062C1128.12 135.5 1128.88 135.125 1129.31 134.938C1129.38 135 1129.41 135.188 1129.41 135.5C1129.41 135.812 1129.41 136.031 1129.41 136.156C1129.41 137.281 1128.84 138.406 1127.72 139.531C1126.66 140.594 1125.28 141.625 1123.59 142.625C1121.91 143.562 1120 144.438 1117.88 145.25C1115.75 146.062 1113.72 146.75 1111.78 147.312C1109.84 147.875 1108.06 148.344 1106.44 148.719C1104.81 149.031 1103.59 149.188 1102.78 149.188C1100.84 149.188 1099.09 148.75 1097.53 147.875C1095.97 147 1094.62 145.812 1093.5 144.312C1092.38 142.812 1091.41 141.094 1090.59 139.156C1089.78 137.219 1089.12 135.219 1088.62 133.156C1088.19 131.094 1087.88 129 1087.69 126.875C1087.5 124.688 1087.41 122.656 1087.41 120.781ZM1130.44 119.844V106.156C1130.44 105.781 1130.47 105.469 1130.53 105.219C1130.59 104.906 1130.72 104.656 1130.91 104.469C1131.09 104.219 1131.41 104.062 1131.84 104C1132.72 104.562 1133.31 105.375 1133.62 106.438C1133.94 107.438 1134.19 108.469 1134.38 109.531C1134.56 110.531 1134.81 111.5 1135.12 112.438C1135.5 113.312 1136.09 113.906 1136.91 114.219C1137.97 112.406 1139.03 110.719 1140.09 109.156C1141.16 107.594 1142.34 106.219 1143.66 105.031C1145.03 103.844 1146.53 102.938 1148.16 102.312C1149.78 101.688 1151.72 101.375 1153.97 101.375C1155.28 101.375 1156.62 101.5 1158 101.75C1159.44 102 1160.72 102.438 1161.84 103.062C1163.03 103.688 1164 104.562 1164.75 105.688C1165.5 106.75 1165.88 108.094 1165.88 109.719C1164.62 109.719 1163.5 109.5 1162.5 109.062C1161.56 108.562 1160.62 108.031 1159.69 107.469C1158.75 106.906 1157.75 106.406 1156.69 105.969C1155.62 105.469 1154.38 105.219 1152.94 105.219C1151.06 105.219 1149.38 105.719 1147.88 106.719C1146.38 107.656 1145.03 108.938 1143.84 110.562C1142.66 112.188 1141.62 114.062 1140.75 116.188C1139.88 118.312 1139.09 120.562 1138.41 122.938C1137.78 125.312 1137.28 127.719 1136.91 130.156C1136.53 132.531 1136.22 134.844 1135.97 137.094C1135.72 139.281 1135.53 141.312 1135.41 143.188C1135.34 145.062 1135.31 146.594 1135.31 147.781H1131.56C1131.31 146.094 1131.12 144.156 1131 141.969C1130.88 139.719 1130.78 137.375 1130.72 134.938C1130.66 132.438 1130.59 129.906 1130.53 127.344C1130.47 124.781 1130.44 122.281 1130.44 119.844Z" fill="black"/>
<path d="M97.5455 240.227V237.727H115V240.227H107.682V261H104.864V240.227H97.5455ZM123.773 261.364C122.091 261.364 120.64 260.992 119.42 260.25C118.208 259.5 117.273 258.455 116.614 257.114C115.962 255.765 115.636 254.197 115.636 252.409C115.636 250.621 115.962 249.045 116.614 247.682C117.273 246.311 118.189 245.242 119.364 244.477C120.545 243.705 121.924 243.318 123.5 243.318C124.409 243.318 125.307 243.47 126.193 243.773C127.08 244.076 127.886 244.568 128.614 245.25C129.341 245.924 129.92 246.818 130.352 247.932C130.784 249.045 131 250.417 131 252.045V253.182H117.545V250.864H128.273C128.273 249.879 128.076 249 127.682 248.227C127.295 247.455 126.742 246.845 126.023 246.398C125.311 245.951 124.47 245.727 123.5 245.727C122.432 245.727 121.508 245.992 120.727 246.523C119.955 247.045 119.36 247.727 118.943 248.568C118.527 249.409 118.318 250.311 118.318 251.273V252.818C118.318 254.136 118.545 255.254 119 256.17C119.462 257.08 120.102 257.773 120.92 258.25C121.739 258.72 122.689 258.955 123.773 258.955C124.477 258.955 125.114 258.856 125.682 258.659C126.258 258.455 126.754 258.152 127.17 257.75C127.587 257.341 127.909 256.833 128.136 256.227L130.727 256.955C130.455 257.833 129.996 258.606 129.352 259.273C128.708 259.932 127.913 260.447 126.966 260.818C126.019 261.182 124.955 261.364 123.773 261.364ZM135.08 261V243.545H137.67V246.182H137.852C138.17 245.318 138.746 244.617 139.58 244.08C140.413 243.542 141.352 243.273 142.398 243.273C142.595 243.273 142.841 243.277 143.136 243.284C143.432 243.292 143.655 243.303 143.807 243.318V246.045C143.716 246.023 143.508 245.989 143.182 245.943C142.864 245.89 142.527 245.864 142.17 245.864C141.322 245.864 140.564 246.042 139.898 246.398C139.239 246.746 138.716 247.231 138.33 247.852C137.951 248.466 137.761 249.167 137.761 249.955V261H135.08ZM146.986 261V243.545H149.577V246.182H149.759C150.077 245.318 150.652 244.617 151.486 244.08C152.319 243.542 153.259 243.273 154.304 243.273C154.501 243.273 154.747 243.277 155.043 243.284C155.338 243.292 155.562 243.303 155.713 243.318V246.045C155.622 246.023 155.414 245.989 155.088 245.943C154.77 245.89 154.433 245.864 154.077 245.864C153.228 245.864 152.471 246.042 151.804 246.398C151.145 246.746 150.622 247.231 150.236 247.852C149.857 248.466 149.668 249.167 149.668 249.955V261H146.986ZM165.679 261.364C163.997 261.364 162.546 260.992 161.327 260.25C160.115 259.5 159.179 258.455 158.52 257.114C157.868 255.765 157.543 254.197 157.543 252.409C157.543 250.621 157.868 249.045 158.52 247.682C159.179 246.311 160.096 245.242 161.27 244.477C162.452 243.705 163.83 243.318 165.406 243.318C166.315 243.318 167.213 243.47 168.099 243.773C168.986 244.076 169.793 244.568 170.52 245.25C171.247 245.924 171.827 246.818 172.259 247.932C172.69 249.045 172.906 250.417 172.906 252.045V253.182H159.452V250.864H170.179C170.179 249.879 169.982 249 169.588 248.227C169.202 247.455 168.649 246.845 167.929 246.398C167.217 245.951 166.376 245.727 165.406 245.727C164.338 245.727 163.414 245.992 162.634 246.523C161.861 247.045 161.266 247.727 160.849 248.568C160.433 249.409 160.224 250.311 160.224 251.273V252.818C160.224 254.136 160.452 255.254 160.906 256.17C161.368 257.08 162.009 257.773 162.827 258.25C163.645 258.72 164.596 258.955 165.679 258.955C166.384 258.955 167.02 258.856 167.588 258.659C168.164 258.455 168.66 258.152 169.077 257.75C169.493 257.341 169.815 256.833 170.043 256.227L172.634 256.955C172.361 257.833 171.902 258.606 171.259 259.273C170.615 259.932 169.819 260.447 168.872 260.818C167.925 261.182 166.861 261.364 165.679 261.364ZM179.668 250.5V261H176.986V243.545H179.577V246.273H179.804C180.213 245.386 180.834 244.674 181.668 244.136C182.501 243.591 183.577 243.318 184.895 243.318C186.077 243.318 187.111 243.561 187.997 244.045C188.884 244.523 189.573 245.25 190.065 246.227C190.558 247.197 190.804 248.424 190.804 249.909V261H188.122V250.091C188.122 248.72 187.766 247.652 187.054 246.886C186.342 246.114 185.365 245.727 184.122 245.727C183.266 245.727 182.501 245.913 181.827 246.284C181.16 246.655 180.634 247.197 180.247 247.909C179.861 248.621 179.668 249.485 179.668 250.5ZM202.795 261.364C201.159 261.364 199.75 260.977 198.568 260.205C197.386 259.432 196.477 258.367 195.841 257.011C195.205 255.655 194.886 254.106 194.886 252.364C194.886 250.591 195.212 249.027 195.864 247.67C196.523 246.307 197.439 245.242 198.614 244.477C199.795 243.705 201.174 243.318 202.75 243.318C203.977 243.318 205.083 243.545 206.068 244C207.053 244.455 207.86 245.091 208.489 245.909C209.117 246.727 209.508 247.682 209.659 248.773H206.977C206.773 247.977 206.318 247.273 205.614 246.659C204.917 246.038 203.977 245.727 202.795 245.727C201.75 245.727 200.833 246 200.045 246.545C199.265 247.083 198.655 247.845 198.216 248.83C197.784 249.807 197.568 250.955 197.568 252.273C197.568 253.621 197.78 254.795 198.205 255.795C198.636 256.795 199.242 257.572 200.023 258.125C200.811 258.678 201.735 258.955 202.795 258.955C203.492 258.955 204.125 258.833 204.693 258.591C205.261 258.348 205.742 258 206.136 257.545C206.53 257.091 206.811 256.545 206.977 255.909H209.659C209.508 256.939 209.133 257.867 208.534 258.693C207.943 259.511 207.159 260.163 206.182 260.648C205.212 261.125 204.083 261.364 202.795 261.364ZM220.898 261.364C219.216 261.364 217.765 260.992 216.545 260.25C215.333 259.5 214.398 258.455 213.739 257.114C213.087 255.765 212.761 254.197 212.761 252.409C212.761 250.621 213.087 249.045 213.739 247.682C214.398 246.311 215.314 245.242 216.489 244.477C217.67 243.705 219.049 243.318 220.625 243.318C221.534 243.318 222.432 243.47 223.318 243.773C224.205 244.076 225.011 244.568 225.739 245.25C226.466 245.924 227.045 246.818 227.477 247.932C227.909 249.045 228.125 250.417 228.125 252.045V253.182H214.67V250.864H225.398C225.398 249.879 225.201 249 224.807 248.227C224.42 247.455 223.867 246.845 223.148 246.398C222.436 245.951 221.595 245.727 220.625 245.727C219.557 245.727 218.633 245.992 217.852 246.523C217.08 247.045 216.485 247.727 216.068 248.568C215.652 249.409 215.443 250.311 215.443 251.273V252.818C215.443 254.136 215.67 255.254 216.125 256.17C216.587 257.08 217.227 257.773 218.045 258.25C218.864 258.72 219.814 258.955 220.898 258.955C221.602 258.955 222.239 258.856 222.807 258.659C223.383 258.455 223.879 258.152 224.295 257.75C224.712 257.341 225.034 256.833 225.261 256.227L227.852 256.955C227.58 257.833 227.121 258.606 226.477 259.273C225.833 259.932 225.038 260.447 224.091 260.818C223.144 261.182 222.08 261.364 220.898 261.364ZM260.295 245H257.477C257.311 244.189 257.019 243.477 256.602 242.864C256.193 242.25 255.693 241.735 255.102 241.318C254.519 240.894 253.871 240.576 253.159 240.364C252.447 240.152 251.705 240.045 250.932 240.045C249.523 240.045 248.246 240.402 247.102 241.114C245.966 241.826 245.061 242.875 244.386 244.261C243.72 245.648 243.386 247.348 243.386 249.364C243.386 251.379 243.72 253.08 244.386 254.466C245.061 255.852 245.966 256.902 247.102 257.614C248.246 258.326 249.523 258.682 250.932 258.682C251.705 258.682 252.447 258.576 253.159 258.364C253.871 258.152 254.519 257.837 255.102 257.42C255.693 256.996 256.193 256.477 256.602 255.864C257.019 255.242 257.311 254.53 257.477 253.727H260.295C260.083 254.917 259.697 255.981 259.136 256.92C258.576 257.86 257.879 258.659 257.045 259.318C256.212 259.97 255.277 260.466 254.239 260.807C253.208 261.148 252.106 261.318 250.932 261.318C248.947 261.318 247.182 260.833 245.636 259.864C244.091 258.894 242.875 257.515 241.989 255.727C241.102 253.939 240.659 251.818 240.659 249.364C240.659 246.909 241.102 244.788 241.989 243C242.875 241.212 244.091 239.833 245.636 238.864C247.182 237.894 248.947 237.409 250.932 237.409C252.106 237.409 253.208 237.58 254.239 237.92C255.277 238.261 256.212 238.761 257.045 239.42C257.879 240.072 258.576 240.867 259.136 241.807C259.697 242.739 260.083 243.803 260.295 245ZM269.622 261.409C268.516 261.409 267.512 261.201 266.611 260.784C265.709 260.36 264.993 259.75 264.463 258.955C263.933 258.152 263.668 257.182 263.668 256.045C263.668 255.045 263.865 254.235 264.259 253.614C264.652 252.985 265.179 252.492 265.838 252.136C266.497 251.78 267.224 251.515 268.02 251.341C268.823 251.159 269.63 251.015 270.44 250.909C271.501 250.773 272.361 250.67 273.02 250.602C273.687 250.527 274.171 250.402 274.474 250.227C274.785 250.053 274.94 249.75 274.94 249.318V249.227C274.94 248.106 274.634 247.235 274.02 246.614C273.414 245.992 272.493 245.682 271.259 245.682C269.978 245.682 268.974 245.962 268.247 246.523C267.52 247.083 267.009 247.682 266.713 248.318L264.168 247.409C264.622 246.348 265.228 245.523 265.986 244.932C266.751 244.333 267.584 243.917 268.486 243.682C269.395 243.439 270.289 243.318 271.168 243.318C271.728 243.318 272.372 243.386 273.099 243.523C273.834 243.652 274.543 243.92 275.224 244.33C275.914 244.739 276.486 245.356 276.94 246.182C277.395 247.008 277.622 248.114 277.622 249.5V261H274.94V258.636H274.804C274.622 259.015 274.319 259.42 273.895 259.852C273.471 260.284 272.906 260.652 272.202 260.955C271.497 261.258 270.637 261.409 269.622 261.409ZM270.031 259C271.092 259 271.986 258.792 272.713 258.375C273.448 257.958 274.001 257.42 274.372 256.761C274.751 256.102 274.94 255.409 274.94 254.682V252.227C274.827 252.364 274.577 252.489 274.19 252.602C273.812 252.708 273.372 252.803 272.872 252.886C272.38 252.962 271.899 253.03 271.429 253.091C270.967 253.144 270.592 253.189 270.304 253.227C269.607 253.318 268.955 253.466 268.349 253.67C267.751 253.867 267.266 254.167 266.895 254.568C266.531 254.962 266.349 255.5 266.349 256.182C266.349 257.114 266.694 257.818 267.384 258.295C268.08 258.765 268.963 259 270.031 259ZM282.881 261V237.727H285.562V246.318H285.79C285.987 246.015 286.259 245.629 286.608 245.159C286.964 244.682 287.472 244.258 288.131 243.886C288.797 243.508 289.699 243.318 290.835 243.318C292.305 243.318 293.6 243.686 294.722 244.42C295.843 245.155 296.718 246.197 297.347 247.545C297.975 248.894 298.29 250.485 298.29 252.318C298.29 254.167 297.975 255.769 297.347 257.125C296.718 258.473 295.847 259.519 294.733 260.261C293.619 260.996 292.335 261.364 290.881 261.364C289.759 261.364 288.862 261.178 288.188 260.807C287.513 260.428 286.994 260 286.631 259.523C286.267 259.038 285.987 258.636 285.79 258.318H285.472V261H282.881ZM285.517 252.273C285.517 253.591 285.71 254.754 286.097 255.761C286.483 256.761 287.047 257.545 287.79 258.114C288.532 258.674 289.441 258.955 290.517 258.955C291.638 258.955 292.574 258.659 293.324 258.068C294.081 257.47 294.65 256.667 295.028 255.659C295.415 254.644 295.608 253.515 295.608 252.273C295.608 251.045 295.419 249.939 295.04 248.955C294.669 247.962 294.104 247.178 293.347 246.602C292.597 246.019 291.653 245.727 290.517 245.727C289.426 245.727 288.509 246.004 287.767 246.557C287.025 247.102 286.464 247.867 286.085 248.852C285.706 249.83 285.517 250.97 285.517 252.273ZM302.392 261V243.545H305.074V261H302.392ZM303.756 240.636C303.233 240.636 302.782 240.458 302.403 240.102C302.032 239.746 301.847 239.318 301.847 238.818C301.847 238.318 302.032 237.89 302.403 237.534C302.782 237.178 303.233 237 303.756 237C304.278 237 304.725 237.178 305.097 237.534C305.475 237.89 305.665 238.318 305.665 238.818C305.665 239.318 305.475 239.746 305.097 240.102C304.725 240.458 304.278 240.636 303.756 240.636ZM312.668 237.727V261H309.986V237.727H312.668ZM320.261 237.727V261H317.58V237.727H320.261ZM332.264 261.364C330.688 261.364 329.306 260.989 328.116 260.239C326.935 259.489 326.01 258.439 325.344 257.091C324.685 255.742 324.355 254.167 324.355 252.364C324.355 250.545 324.685 248.958 325.344 247.602C326.01 246.246 326.935 245.193 328.116 244.443C329.306 243.693 330.688 243.318 332.264 243.318C333.84 243.318 335.219 243.693 336.401 244.443C337.59 245.193 338.514 246.246 339.173 247.602C339.84 248.958 340.173 250.545 340.173 252.364C340.173 254.167 339.84 255.742 339.173 257.091C338.514 258.439 337.59 259.489 336.401 260.239C335.219 260.989 333.84 261.364 332.264 261.364ZM332.264 258.955C333.461 258.955 334.446 258.648 335.219 258.034C335.991 257.42 336.563 256.614 336.935 255.614C337.306 254.614 337.491 253.53 337.491 252.364C337.491 251.197 337.306 250.11 336.935 249.102C336.563 248.095 335.991 247.28 335.219 246.659C334.446 246.038 333.461 245.727 332.264 245.727C331.067 245.727 330.082 246.038 329.31 246.659C328.537 247.28 327.965 248.095 327.594 249.102C327.223 250.11 327.037 251.197 327.037 252.364C327.037 253.53 327.223 254.614 327.594 255.614C327.965 256.614 328.537 257.42 329.31 258.034C330.082 258.648 331.067 258.955 332.264 258.955Z" fill="black"/>
<path d="M506.818 261V237.727H520.773V240.227H509.636V248.091H519.727V250.591H509.636V261H506.818ZM525.048 261V243.545H527.639V246.182H527.821C528.139 245.318 528.715 244.617 529.548 244.08C530.382 243.542 531.321 243.273 532.366 243.273C532.563 243.273 532.81 243.277 533.105 243.284C533.401 243.292 533.624 243.303 533.776 243.318V246.045C533.685 246.023 533.476 245.989 533.151 245.943C532.832 245.89 532.495 245.864 532.139 245.864C531.291 245.864 530.533 246.042 529.866 246.398C529.207 246.746 528.685 247.231 528.298 247.852C527.92 248.466 527.73 249.167 527.73 249.955V261H525.048ZM543.514 261.364C541.938 261.364 540.556 260.989 539.366 260.239C538.185 259.489 537.26 258.439 536.594 257.091C535.935 255.742 535.605 254.167 535.605 252.364C535.605 250.545 535.935 248.958 536.594 247.602C537.26 246.246 538.185 245.193 539.366 244.443C540.556 243.693 541.938 243.318 543.514 243.318C545.09 243.318 546.469 243.693 547.651 244.443C548.84 245.193 549.764 246.246 550.423 247.602C551.09 248.958 551.423 250.545 551.423 252.364C551.423 254.167 551.09 255.742 550.423 257.091C549.764 258.439 548.84 259.489 547.651 260.239C546.469 260.989 545.09 261.364 543.514 261.364ZM543.514 258.955C544.711 258.955 545.696 258.648 546.469 258.034C547.241 257.42 547.813 256.614 548.185 255.614C548.556 254.614 548.741 253.53 548.741 252.364C548.741 251.197 548.556 250.11 548.185 249.102C547.813 248.095 547.241 247.28 546.469 246.659C545.696 246.038 544.711 245.727 543.514 245.727C542.317 245.727 541.332 246.038 540.56 246.659C539.787 247.28 539.215 248.095 538.844 249.102C538.473 250.11 538.287 251.197 538.287 252.364C538.287 253.53 538.473 254.614 538.844 255.614C539.215 256.614 539.787 257.42 540.56 258.034C541.332 258.648 542.317 258.955 543.514 258.955ZM558.199 250.5V261H555.517V243.545H558.108V246.273H558.335C558.744 245.386 559.366 244.674 560.199 244.136C561.032 243.591 562.108 243.318 563.426 243.318C564.608 243.318 565.642 243.561 566.528 244.045C567.415 244.523 568.104 245.25 568.597 246.227C569.089 247.197 569.335 248.424 569.335 249.909V261H566.653V250.091C566.653 248.72 566.297 247.652 565.585 246.886C564.873 246.114 563.896 245.727 562.653 245.727C561.797 245.727 561.032 245.913 560.358 246.284C559.691 246.655 559.165 247.197 558.778 247.909C558.392 248.621 558.199 249.485 558.199 250.5ZM581.827 243.545V245.818H572.781V243.545H581.827ZM575.418 239.364H578.099V256C578.099 256.758 578.209 257.326 578.429 257.705C578.656 258.076 578.944 258.326 579.293 258.455C579.649 258.576 580.024 258.636 580.418 258.636C580.713 258.636 580.955 258.621 581.145 258.591C581.334 258.553 581.486 258.523 581.599 258.5L582.145 260.909C581.963 260.977 581.709 261.045 581.384 261.114C581.058 261.189 580.645 261.227 580.145 261.227C579.387 261.227 578.645 261.064 577.918 260.739C577.198 260.413 576.599 259.917 576.122 259.25C575.652 258.583 575.418 257.742 575.418 256.727V239.364ZM595.236 249.773V252.273H585.054V249.773H595.236ZM600.318 261V237.727H614.364V240.227H603.136V248.091H613.636V250.591H603.136V258.5H614.545V261H600.318ZM621.761 250.5V261H619.08V243.545H621.67V246.273H621.898C622.307 245.386 622.928 244.674 623.761 244.136C624.595 243.591 625.67 243.318 626.989 243.318C628.17 243.318 629.205 243.561 630.091 244.045C630.977 244.523 631.667 245.25 632.159 246.227C632.652 247.197 632.898 248.424 632.898 249.909V261H630.216V250.091C630.216 248.72 629.86 247.652 629.148 246.886C628.436 246.114 627.458 245.727 626.216 245.727C625.36 245.727 624.595 245.913 623.92 246.284C623.254 246.655 622.727 247.197 622.341 247.909C621.955 248.621 621.761 249.485 621.761 250.5ZM644.389 261.364C642.935 261.364 641.651 260.996 640.537 260.261C639.423 259.519 638.552 258.473 637.923 257.125C637.295 255.769 636.98 254.167 636.98 252.318C636.98 250.485 637.295 248.894 637.923 247.545C638.552 246.197 639.427 245.155 640.548 244.42C641.67 243.686 642.965 243.318 644.435 243.318C645.571 243.318 646.469 243.508 647.128 243.886C647.795 244.258 648.302 244.682 648.651 245.159C649.007 245.629 649.283 246.015 649.48 246.318H649.707V237.727H652.389V261H649.798V258.318H649.48C649.283 258.636 649.003 259.038 648.639 259.523C648.276 260 647.757 260.428 647.082 260.807C646.408 261.178 645.51 261.364 644.389 261.364ZM644.753 258.955C645.829 258.955 646.738 258.674 647.48 258.114C648.223 257.545 648.787 256.761 649.173 255.761C649.56 254.754 649.753 253.591 649.753 252.273C649.753 250.97 649.563 249.83 649.185 248.852C648.806 247.867 648.245 247.102 647.503 246.557C646.76 246.004 645.844 245.727 644.753 245.727C643.616 245.727 642.67 246.019 641.912 246.602C641.162 247.178 640.598 247.962 640.219 248.955C639.848 249.939 639.662 251.045 639.662 252.273C639.662 253.515 639.851 254.644 640.23 255.659C640.616 256.667 641.185 257.47 641.935 258.068C642.692 258.659 643.632 258.955 644.753 258.955ZM671.264 261L664.901 237.727H667.764L672.628 256.682H672.855L677.81 237.727H680.991L685.946 256.682H686.173L691.037 237.727H693.901L687.537 261H684.628L679.491 242.455H679.31L674.173 261H671.264ZM702.741 261.364C701.06 261.364 699.609 260.992 698.389 260.25C697.177 259.5 696.241 258.455 695.582 257.114C694.931 255.765 694.605 254.197 694.605 252.409C694.605 250.621 694.931 249.045 695.582 247.682C696.241 246.311 697.158 245.242 698.332 244.477C699.514 243.705 700.893 243.318 702.469 243.318C703.378 243.318 704.276 243.47 705.162 243.773C706.048 244.076 706.855 244.568 707.582 245.25C708.31 245.924 708.889 246.818 709.321 247.932C709.753 249.045 709.969 250.417 709.969 252.045V253.182H696.514V250.864H707.241C707.241 249.879 707.045 249 706.651 248.227C706.264 247.455 705.711 246.845 704.991 246.398C704.279 245.951 703.438 245.727 702.469 245.727C701.401 245.727 700.476 245.992 699.696 246.523C698.923 247.045 698.329 247.727 697.912 248.568C697.495 249.409 697.287 250.311 697.287 251.273V252.818C697.287 254.136 697.514 255.254 697.969 256.17C698.431 257.08 699.071 257.773 699.889 258.25C700.707 258.72 701.658 258.955 702.741 258.955C703.446 258.955 704.082 258.856 704.651 258.659C705.226 258.455 705.723 258.152 706.139 257.75C706.556 257.341 706.878 256.833 707.105 256.227L709.696 256.955C709.423 257.833 708.965 258.606 708.321 259.273C707.677 259.932 706.882 260.447 705.935 260.818C704.988 261.182 703.923 261.364 702.741 261.364ZM714.412 261V237.727H717.094V246.318H717.321C717.518 246.015 717.791 245.629 718.139 245.159C718.495 244.682 719.003 244.258 719.662 243.886C720.329 243.508 721.23 243.318 722.366 243.318C723.836 243.318 725.132 243.686 726.253 244.42C727.374 245.155 728.249 246.197 728.878 247.545C729.507 248.894 729.821 250.485 729.821 252.318C729.821 254.167 729.507 255.769 728.878 257.125C728.249 258.473 727.378 259.519 726.264 260.261C725.151 260.996 723.866 261.364 722.412 261.364C721.291 261.364 720.393 261.178 719.719 260.807C719.045 260.428 718.526 260 718.162 259.523C717.798 259.038 717.518 258.636 717.321 258.318H717.003V261H714.412ZM717.048 252.273C717.048 253.591 717.241 254.754 717.628 255.761C718.014 256.761 718.579 257.545 719.321 258.114C720.063 258.674 720.973 258.955 722.048 258.955C723.17 258.955 724.105 258.659 724.855 258.068C725.613 257.47 726.181 256.667 726.56 255.659C726.946 254.644 727.139 253.515 727.139 252.273C727.139 251.045 726.95 249.939 726.571 248.955C726.2 247.962 725.635 247.178 724.878 246.602C724.128 246.019 723.185 245.727 722.048 245.727C720.957 245.727 720.041 246.004 719.298 246.557C718.556 247.102 717.995 247.867 717.616 248.852C717.238 249.83 717.048 250.97 717.048 252.273ZM750.469 261H743.287V237.727H750.787C753.045 237.727 754.976 238.193 756.582 239.125C758.188 240.049 759.42 241.379 760.276 243.114C761.132 244.841 761.56 246.909 761.56 249.318C761.56 251.742 761.128 253.83 760.264 255.58C759.401 257.322 758.143 258.663 756.491 259.602C754.84 260.534 752.832 261 750.469 261ZM746.105 258.5H750.287C752.211 258.5 753.806 258.129 755.071 257.386C756.336 256.644 757.279 255.587 757.901 254.216C758.522 252.845 758.832 251.212 758.832 249.318C758.832 247.439 758.526 245.822 757.912 244.466C757.298 243.102 756.382 242.057 755.162 241.33C753.942 240.595 752.423 240.227 750.605 240.227H746.105V258.5ZM773.241 261.364C771.56 261.364 770.109 260.992 768.889 260.25C767.677 259.5 766.741 258.455 766.082 257.114C765.431 255.765 765.105 254.197 765.105 252.409C765.105 250.621 765.431 249.045 766.082 247.682C766.741 246.311 767.658 245.242 768.832 244.477C770.014 243.705 771.393 243.318 772.969 243.318C773.878 243.318 774.776 243.47 775.662 243.773C776.548 244.076 777.355 244.568 778.082 245.25C778.81 245.924 779.389 246.818 779.821 247.932C780.253 249.045 780.469 250.417 780.469 252.045V253.182H767.014V250.864H777.741C777.741 249.879 777.545 249 777.151 248.227C776.764 247.455 776.211 246.845 775.491 246.398C774.779 245.951 773.938 245.727 772.969 245.727C771.901 245.727 770.976 245.992 770.196 246.523C769.423 247.045 768.829 247.727 768.412 248.568C767.995 249.409 767.787 250.311 767.787 251.273V252.818C767.787 254.136 768.014 255.254 768.469 256.17C768.931 257.08 769.571 257.773 770.389 258.25C771.207 258.72 772.158 258.955 773.241 258.955C773.946 258.955 774.582 258.856 775.151 258.659C775.726 258.455 776.223 258.152 776.639 257.75C777.056 257.341 777.378 256.833 777.605 256.227L780.196 256.955C779.923 257.833 779.465 258.606 778.821 259.273C778.177 259.932 777.382 260.447 776.435 260.818C775.488 261.182 774.423 261.364 773.241 261.364ZM798.29 243.545L791.835 261H789.108L782.653 243.545H785.562L790.381 257.455H790.562L795.381 243.545H798.29ZM808.523 261.364C806.841 261.364 805.39 260.992 804.17 260.25C802.958 259.5 802.023 258.455 801.364 257.114C800.712 255.765 800.386 254.197 800.386 252.409C800.386 250.621 800.712 249.045 801.364 247.682C802.023 246.311 802.939 245.242 804.114 244.477C805.295 243.705 806.674 243.318 808.25 243.318C809.159 243.318 810.057 243.47 810.943 243.773C811.83 244.076 812.636 244.568 813.364 245.25C814.091 245.924 814.67 246.818 815.102 247.932C815.534 249.045 815.75 250.417 815.75 252.045V253.182H802.295V250.864H813.023C813.023 249.879 812.826 249 812.432 248.227C812.045 247.455 811.492 246.845 810.773 246.398C810.061 245.951 809.22 245.727 808.25 245.727C807.182 245.727 806.258 245.992 805.477 246.523C804.705 247.045 804.11 247.727 803.693 248.568C803.277 249.409 803.068 250.311 803.068 251.273V252.818C803.068 254.136 803.295 255.254 803.75 256.17C804.212 257.08 804.852 257.773 805.67 258.25C806.489 258.72 807.439 258.955 808.523 258.955C809.227 258.955 809.864 258.856 810.432 258.659C811.008 258.455 811.504 258.152 811.92 257.75C812.337 257.341 812.659 256.833 812.886 256.227L815.477 256.955C815.205 257.833 814.746 258.606 814.102 259.273C813.458 259.932 812.663 260.447 811.716 260.818C810.769 261.182 809.705 261.364 808.523 261.364ZM822.511 237.727V261H819.83V237.727H822.511ZM834.514 261.364C832.938 261.364 831.556 260.989 830.366 260.239C829.185 259.489 828.26 258.439 827.594 257.091C826.935 255.742 826.605 254.167 826.605 252.364C826.605 250.545 826.935 248.958 827.594 247.602C828.26 246.246 829.185 245.193 830.366 244.443C831.556 243.693 832.938 243.318 834.514 243.318C836.09 243.318 837.469 243.693 838.651 244.443C839.84 245.193 840.764 246.246 841.423 247.602C842.09 248.958 842.423 250.545 842.423 252.364C842.423 254.167 842.09 255.742 841.423 257.091C840.764 258.439 839.84 259.489 838.651 260.239C837.469 260.989 836.09 261.364 834.514 261.364ZM834.514 258.955C835.711 258.955 836.696 258.648 837.469 258.034C838.241 257.42 838.813 256.614 839.185 255.614C839.556 254.614 839.741 253.53 839.741 252.364C839.741 251.197 839.556 250.11 839.185 249.102C838.813 248.095 838.241 247.28 837.469 246.659C836.696 246.038 835.711 245.727 834.514 245.727C833.317 245.727 832.332 246.038 831.56 246.659C830.787 247.28 830.215 248.095 829.844 249.102C829.473 250.11 829.287 251.197 829.287 252.364C829.287 253.53 829.473 254.614 829.844 255.614C830.215 256.614 830.787 257.42 831.56 258.034C832.332 258.648 833.317 258.955 834.514 258.955ZM846.517 267.545V243.545H849.108V246.318H849.426C849.623 246.015 849.896 245.629 850.244 245.159C850.6 244.682 851.108 244.258 851.767 243.886C852.434 243.508 853.335 243.318 854.472 243.318C855.941 243.318 857.237 243.686 858.358 244.42C859.479 245.155 860.354 246.197 860.983 247.545C861.612 248.894 861.926 250.485 861.926 252.318C861.926 254.167 861.612 255.769 860.983 257.125C860.354 258.473 859.483 259.519 858.369 260.261C857.256 260.996 855.972 261.364 854.517 261.364C853.396 261.364 852.498 261.178 851.824 260.807C851.15 260.428 850.631 260 850.267 259.523C849.903 259.038 849.623 258.636 849.426 258.318H849.199V267.545H846.517ZM849.153 252.273C849.153 253.591 849.347 254.754 849.733 255.761C850.119 256.761 850.684 257.545 851.426 258.114C852.169 258.674 853.078 258.955 854.153 258.955C855.275 258.955 856.21 258.659 856.96 258.068C857.718 257.47 858.286 256.667 858.665 255.659C859.051 254.644 859.244 253.515 859.244 252.273C859.244 251.045 859.055 249.939 858.676 248.955C858.305 247.962 857.741 247.178 856.983 246.602C856.233 246.019 855.29 245.727 854.153 245.727C853.063 245.727 852.146 246.004 851.403 246.557C850.661 247.102 850.1 247.867 849.722 248.852C849.343 249.83 849.153 250.97 849.153 252.273ZM873.335 261.364C871.653 261.364 870.203 260.992 868.983 260.25C867.771 259.5 866.835 258.455 866.176 257.114C865.525 255.765 865.199 254.197 865.199 252.409C865.199 250.621 865.525 249.045 866.176 247.682C866.835 246.311 867.752 245.242 868.926 244.477C870.108 243.705 871.487 243.318 873.062 243.318C873.972 243.318 874.869 243.47 875.756 243.773C876.642 244.076 877.449 244.568 878.176 245.25C878.903 245.924 879.483 246.818 879.915 247.932C880.347 249.045 880.562 250.417 880.562 252.045V253.182H867.108V250.864H877.835C877.835 249.879 877.638 249 877.244 248.227C876.858 247.455 876.305 246.845 875.585 246.398C874.873 245.951 874.032 245.727 873.062 245.727C871.994 245.727 871.07 245.992 870.29 246.523C869.517 247.045 868.922 247.727 868.506 248.568C868.089 249.409 867.881 250.311 867.881 251.273V252.818C867.881 254.136 868.108 255.254 868.562 256.17C869.025 257.08 869.665 257.773 870.483 258.25C871.301 258.72 872.252 258.955 873.335 258.955C874.04 258.955 874.676 258.856 875.244 258.659C875.82 258.455 876.316 258.152 876.733 257.75C877.15 257.341 877.472 256.833 877.699 256.227L880.29 256.955C880.017 257.833 879.559 258.606 878.915 259.273C878.271 259.932 877.475 260.447 876.528 260.818C875.581 261.182 874.517 261.364 873.335 261.364ZM884.642 261V243.545H887.233V246.182H887.415C887.733 245.318 888.309 244.617 889.142 244.08C889.975 243.542 890.915 243.273 891.96 243.273C892.157 243.273 892.403 243.277 892.699 243.284C892.994 243.292 893.218 243.303 893.369 243.318V246.045C893.278 246.023 893.07 245.989 892.744 245.943C892.426 245.89 892.089 245.864 891.733 245.864C890.884 245.864 890.127 246.042 889.46 246.398C888.801 246.746 888.278 247.231 887.892 247.852C887.513 248.466 887.324 249.167 887.324 249.955V261H884.642Z" fill="black"/>
<path d="M1075.09 237.727H1077.91V253.136C1077.91 254.727 1077.53 256.148 1076.78 257.398C1076.04 258.64 1074.99 259.621 1073.64 260.341C1072.28 261.053 1070.69 261.409 1068.86 261.409C1067.04 261.409 1065.45 261.053 1064.09 260.341C1062.73 259.621 1061.68 258.64 1060.93 257.398C1060.19 256.148 1059.82 254.727 1059.82 253.136V237.727H1062.64V252.909C1062.64 254.045 1062.89 255.057 1063.39 255.943C1063.89 256.822 1064.6 257.515 1065.52 258.023C1066.45 258.523 1067.57 258.773 1068.86 258.773C1070.16 258.773 1071.27 258.523 1072.2 258.023C1073.14 257.515 1073.85 256.822 1074.34 255.943C1074.84 255.057 1075.09 254.045 1075.09 252.909V237.727ZM1086.36 237.727V261H1083.54V237.727H1086.36ZM1099.87 236.636L1092.37 264.5H1089.91L1097.41 236.636H1099.87ZM1118.68 237.727H1121.5V253.136C1121.5 254.727 1121.13 256.148 1120.38 257.398C1119.64 258.64 1118.59 259.621 1117.23 260.341C1115.87 261.053 1114.28 261.409 1112.46 261.409C1110.63 261.409 1109.04 261.053 1107.68 260.341C1106.33 259.621 1105.28 258.64 1104.53 257.398C1103.78 256.148 1103.41 254.727 1103.41 253.136V237.727H1106.23V252.909C1106.23 254.045 1106.48 255.057 1106.98 255.943C1107.48 256.822 1108.19 257.515 1109.12 258.023C1110.05 258.523 1111.16 258.773 1112.46 258.773C1113.75 258.773 1114.87 258.523 1115.8 258.023C1116.73 257.515 1117.44 256.822 1117.93 255.943C1118.43 255.057 1118.68 254.045 1118.68 252.909V237.727ZM1128.49 237.727L1134.49 247.409H1134.68L1140.68 237.727H1143.99L1136.68 249.364L1143.99 261H1140.68L1134.68 251.5H1134.49L1128.49 261H1125.18L1132.68 249.364L1125.18 237.727H1128.49ZM1163.84 261H1156.66V237.727H1164.16C1166.42 237.727 1168.35 238.193 1169.96 239.125C1171.56 240.049 1172.79 241.379 1173.65 243.114C1174.51 244.841 1174.93 246.909 1174.93 249.318C1174.93 251.742 1174.5 253.83 1173.64 255.58C1172.78 257.322 1171.52 258.663 1169.87 259.602C1168.21 260.534 1166.21 261 1163.84 261ZM1159.48 258.5H1163.66C1165.59 258.5 1167.18 258.129 1168.45 257.386C1169.71 256.644 1170.65 255.587 1171.28 254.216C1171.9 252.845 1172.21 251.212 1172.21 249.318C1172.21 247.439 1171.9 245.822 1171.29 244.466C1170.67 243.102 1169.76 242.057 1168.54 241.33C1167.32 240.595 1165.8 240.227 1163.98 240.227H1159.48V258.5ZM1186.62 261.364C1184.93 261.364 1183.48 260.992 1182.26 260.25C1181.05 259.5 1180.12 258.455 1179.46 257.114C1178.81 255.765 1178.48 254.197 1178.48 252.409C1178.48 250.621 1178.81 249.045 1179.46 247.682C1180.12 246.311 1181.03 245.242 1182.21 244.477C1183.39 243.705 1184.77 243.318 1186.34 243.318C1187.25 243.318 1188.15 243.47 1189.04 243.773C1189.92 244.076 1190.73 244.568 1191.46 245.25C1192.18 245.924 1192.76 246.818 1193.2 247.932C1193.63 249.045 1193.84 250.417 1193.84 252.045V253.182H1180.39V250.864H1191.12C1191.12 249.879 1190.92 249 1190.53 248.227C1190.14 247.455 1189.59 246.845 1188.87 246.398C1188.15 245.951 1187.31 245.727 1186.34 245.727C1185.28 245.727 1184.35 245.992 1183.57 246.523C1182.8 247.045 1182.2 247.727 1181.79 248.568C1181.37 249.409 1181.16 250.311 1181.16 251.273V252.818C1181.16 254.136 1181.39 255.254 1181.84 256.17C1182.31 257.08 1182.95 257.773 1183.76 258.25C1184.58 258.72 1185.53 258.955 1186.62 258.955C1187.32 258.955 1187.96 258.856 1188.53 258.659C1189.1 258.455 1189.6 258.152 1190.01 257.75C1190.43 257.341 1190.75 256.833 1190.98 256.227L1193.57 256.955C1193.3 257.833 1192.84 258.606 1192.2 259.273C1191.55 259.932 1190.76 260.447 1189.81 260.818C1188.86 261.182 1187.8 261.364 1186.62 261.364ZM1210.29 247.455L1207.88 248.136C1207.73 247.735 1207.5 247.345 1207.21 246.966C1206.92 246.58 1206.53 246.261 1206.03 246.011C1205.53 245.761 1204.89 245.636 1204.11 245.636C1203.04 245.636 1202.15 245.883 1201.43 246.375C1200.73 246.86 1200.38 247.477 1200.38 248.227C1200.38 248.894 1200.62 249.42 1201.11 249.807C1201.59 250.193 1202.35 250.515 1203.38 250.773L1205.97 251.409C1207.53 251.788 1208.69 252.367 1209.46 253.148C1210.22 253.92 1210.61 254.917 1210.61 256.136C1210.61 257.136 1210.32 258.03 1209.74 258.818C1209.17 259.606 1208.38 260.227 1207.36 260.682C1206.33 261.136 1205.14 261.364 1203.79 261.364C1202.01 261.364 1200.53 260.977 1199.37 260.205C1198.2 259.432 1197.46 258.303 1197.15 256.818L1199.7 256.182C1199.94 257.121 1200.4 257.826 1201.07 258.295C1201.75 258.765 1202.64 259 1203.74 259C1204.99 259 1205.98 258.735 1206.72 258.205C1207.46 257.667 1207.83 257.023 1207.83 256.273C1207.83 255.667 1207.62 255.159 1207.2 254.75C1206.77 254.333 1206.12 254.023 1205.24 253.818L1202.33 253.136C1200.73 252.758 1199.56 252.17 1198.81 251.375C1198.07 250.572 1197.7 249.568 1197.7 248.364C1197.7 247.379 1197.97 246.508 1198.53 245.75C1199.09 244.992 1199.85 244.398 1200.81 243.966C1201.78 243.534 1202.88 243.318 1204.11 243.318C1205.83 243.318 1207.19 243.697 1208.17 244.455C1209.17 245.212 1209.87 246.212 1210.29 247.455ZM1214.64 261V243.545H1217.32V261H1214.64ZM1216.01 240.636C1215.48 240.636 1215.03 240.458 1214.65 240.102C1214.28 239.746 1214.1 239.318 1214.1 238.818C1214.1 238.318 1214.28 237.89 1214.65 237.534C1215.03 237.178 1215.48 237 1216.01 237C1216.53 237 1216.98 237.178 1217.35 237.534C1217.73 237.89 1217.91 238.318 1217.91 238.818C1217.91 239.318 1217.73 239.746 1217.35 240.102C1216.98 240.458 1216.53 240.636 1216.01 240.636ZM1229.28 267.909C1227.99 267.909 1226.87 267.742 1225.94 267.409C1225.01 267.083 1224.23 266.652 1223.61 266.114C1223 265.583 1222.51 265.015 1222.14 264.409L1224.28 262.909C1224.52 263.227 1224.83 263.591 1225.2 264C1225.57 264.417 1226.08 264.777 1226.72 265.08C1227.38 265.39 1228.23 265.545 1229.28 265.545C1230.69 265.545 1231.85 265.205 1232.77 264.523C1233.69 263.841 1234.14 262.773 1234.14 261.318V257.773H1233.92C1233.72 258.091 1233.44 258.485 1233.08 258.955C1232.72 259.417 1232.21 259.83 1231.53 260.193C1230.86 260.549 1229.96 260.727 1228.83 260.727C1227.42 260.727 1226.15 260.394 1225.03 259.727C1223.92 259.061 1223.04 258.091 1222.38 256.818C1221.74 255.545 1221.42 254 1221.42 252.182C1221.42 250.394 1221.73 248.837 1222.36 247.511C1222.99 246.178 1223.86 245.148 1224.99 244.42C1226.11 243.686 1227.4 243.318 1228.87 243.318C1230.01 243.318 1230.91 243.508 1231.58 243.886C1232.25 244.258 1232.77 244.682 1233.12 245.159C1233.49 245.629 1233.77 246.015 1233.96 246.318H1234.24V243.545H1236.83V261.5C1236.83 263 1236.49 264.22 1235.8 265.159C1235.13 266.106 1234.22 266.799 1233.08 267.239C1231.94 267.686 1230.68 267.909 1229.28 267.909ZM1229.19 258.318C1230.27 258.318 1231.18 258.072 1231.92 257.58C1232.66 257.087 1233.22 256.379 1233.61 255.455C1234 254.53 1234.19 253.424 1234.19 252.136C1234.19 250.879 1234 249.769 1233.62 248.807C1233.24 247.845 1232.68 247.091 1231.94 246.545C1231.2 246 1230.28 245.727 1229.19 245.727C1228.05 245.727 1227.11 246.015 1226.35 246.591C1225.6 247.167 1225.04 247.939 1224.66 248.909C1224.29 249.879 1224.1 250.955 1224.1 252.136C1224.1 253.348 1224.29 254.42 1224.67 255.352C1225.05 256.277 1225.62 257.004 1226.37 257.534C1227.13 258.057 1228.07 258.318 1229.19 258.318ZM1244.42 250.5V261H1241.74V243.545H1244.33V246.273H1244.55C1244.96 245.386 1245.58 244.674 1246.42 244.136C1247.25 243.591 1248.33 243.318 1249.64 243.318C1250.83 243.318 1251.86 243.561 1252.75 244.045C1253.63 244.523 1254.32 245.25 1254.82 246.227C1255.31 247.197 1255.55 248.424 1255.55 249.909V261H1252.87V250.091C1252.87 248.72 1252.52 247.652 1251.8 246.886C1251.09 246.114 1250.11 245.727 1248.87 245.727C1248.02 245.727 1247.25 245.913 1246.58 246.284C1245.91 246.655 1245.38 247.197 1245 247.909C1244.61 248.621 1244.42 249.485 1244.42 250.5ZM1267.77 261.364C1266.09 261.364 1264.64 260.992 1263.42 260.25C1262.21 259.5 1261.27 258.455 1260.61 257.114C1259.96 255.765 1259.64 254.197 1259.64 252.409C1259.64 250.621 1259.96 249.045 1260.61 247.682C1261.27 246.311 1262.19 245.242 1263.36 244.477C1264.55 243.705 1265.92 243.318 1267.5 243.318C1268.41 243.318 1269.31 243.47 1270.19 243.773C1271.08 244.076 1271.89 244.568 1272.61 245.25C1273.34 245.924 1273.92 246.818 1274.35 247.932C1274.78 249.045 1275 250.417 1275 252.045V253.182H1261.55V250.864H1272.27C1272.27 249.879 1272.08 249 1271.68 248.227C1271.3 247.455 1270.74 246.845 1270.02 246.398C1269.31 245.951 1268.47 245.727 1267.5 245.727C1266.43 245.727 1265.51 245.992 1264.73 246.523C1263.95 247.045 1263.36 247.727 1262.94 248.568C1262.53 249.409 1262.32 250.311 1262.32 251.273V252.818C1262.32 254.136 1262.55 255.254 1263 256.17C1263.46 257.08 1264.1 257.773 1264.92 258.25C1265.74 258.72 1266.69 258.955 1267.77 258.955C1268.48 258.955 1269.11 258.856 1269.68 258.659C1270.26 258.455 1270.75 258.152 1271.17 257.75C1271.59 257.341 1271.91 256.833 1272.14 256.227L1274.73 256.955C1274.45 257.833 1274 258.606 1273.35 259.273C1272.71 259.932 1271.91 260.447 1270.97 260.818C1270.02 261.182 1268.95 261.364 1267.77 261.364ZM1279.08 261V243.545H1281.67V246.182H1281.85C1282.17 245.318 1282.75 244.617 1283.58 244.08C1284.41 243.542 1285.35 243.273 1286.4 243.273C1286.59 243.273 1286.84 243.277 1287.14 243.284C1287.43 243.292 1287.66 243.303 1287.81 243.318V246.045C1287.72 246.023 1287.51 245.989 1287.18 245.943C1286.86 245.89 1286.53 245.864 1286.17 245.864C1285.32 245.864 1284.56 246.042 1283.9 246.398C1283.24 246.746 1282.72 247.231 1282.33 247.852C1281.95 248.466 1281.76 249.167 1281.76 249.955V261H1279.08ZM1290.94 261.182C1290.38 261.182 1289.9 260.981 1289.5 260.58C1289.1 260.178 1288.89 259.697 1288.89 259.136C1288.89 258.576 1289.1 258.095 1289.5 257.693C1289.9 257.292 1290.38 257.091 1290.94 257.091C1291.5 257.091 1291.98 257.292 1292.38 257.693C1292.79 258.095 1292.99 258.576 1292.99 259.136C1292.99 259.508 1292.89 259.848 1292.7 260.159C1292.52 260.47 1292.27 260.72 1291.96 260.909C1291.66 261.091 1291.32 261.182 1290.94 261.182Z" fill="black"/>
<circle cx="423" cy="249" r="10" fill="white"/>
<circle cx="976" cy="249" r="10" fill="white"/>
</g>
<defs>
<linearGradient id="paint0_linear_1_2" x1="735" y1="117" x2="183" y2="117" gradientUnits="userSpaceOnUse">
<stop stop-color="white" stop-opacity="0"/>
<stop offset="1" stop-color="white"/>
</linearGradient>
<clipPath id="clip0_1_2">
<rect width="1446" height="309" fill="white"/>
</clipPath>
</defs>
</svg>
